<?xml version="1.0" encoding="UTF-8"?>
<svg xmlns="http://www.w3.org/2000/svg" version="1.2" viewBox="0 0 186 50" width="186" height="50">
  <title>logo-svg</title>
  <style>
    .s0 { fill: #111111 }
  </style>
  <filter id="f0">
    <feFlood flood-color="#111111" flood-opacity="1"></feFlood>
    <feBlend mode="normal" in2="SourceGraphic"></feBlend>
    <feComposite in2="SourceAlpha" operator="in"></feComposite>
  </filter>
  <g id="layer1" filter="url(#f0)">
    <path id="path839" class="s0" d="m31.9 14.9q0 0.8-0.2 1.4-0.2 0.5-0.5 0.9-0.3 0.4-0.6 0.6-0.4 0.2-0.6 0.2 0.2 0 0.5 0.1 0.4 0.2 0.7 0.6 0.3 0.4 0.5 1 0.2 0.5 0.2 1.4v1.9q0 0.6-0.2 1.2-0.3 0.5-0.6 1-0.4 0.4-0.8 0.7-0.5 0.2-0.9 0.2h-2.2q-0.8 0-1.9 0v-0.6q0.2 0.1 0.3 0 0.1 0 0.2-0.2 0.1-0.1 0.1-0.4v-13.9q0-0.3-0.1-0.4-0.1-0.2-0.2-0.2-0.1-0.1-0.3 0v-0.6h3.6q0.8 0 1.3 0.3 0.6 0.2 1 0.6 0.3 0.5 0.5 1 0.2 0.5 0.2 1.1zm-4.4-4.6v7.3h1.1q0.5 0 1-0.2 0.4-0.2 0.6-0.9 0.1-0.1 0.1-0.2 0-0.1 0.1-0.2 0-0.1 0-0.1 0-0.3 0-0.6 0.1-0.2 0.1-0.6v-2.6q0-0.6-0.2-1-0.2-0.4-0.5-0.6-0.2-0.1-0.5-0.2-0.2-0.1-0.6-0.1zm0 15.2h1q0.6 0 1.2-0.3 0.5-0.4 0.7-1.3 0.1-0.2 0.1-0.4 0-0.2 0-0.5v-2q0-0.5-0.1-0.9 0 0 0-0.1 0-0.1 0-0.2 0-0.2-0.1-0.3-0.3-0.7-0.7-1-0.5-0.3-0.9-0.3h-1.2c0 0 0 7.3 0 7.3z"></path>
    <path id="path841" class="s0" d="m43.5 23.7v2.4h-6.1v-0.6q0.2 0.1 0.3 0 0.1 0 0.2-0.1 0.1-0.2 0.1-0.5v-13.9q0-0.3-0.1-0.5-0.1-0.1-0.2-0.2-0.1 0-0.3 0v-0.5h2.8v0.5q-0.2 0-0.4 0-0.1 0.1-0.1 0.2-0.1 0.2-0.1 0.5v14.5h2.1q0.5 0 0.7-0.2 0.3-0.3 0.4-0.7 0.1-0.3 0.1-0.9c0 0 0.6 0 0.6 0z"></path>
    <path id="path843" class="s0" d="m51.5 9.8v0.5q-0.1 0-0.2 0-0.2 0.1-0.2 0.2-0.1 0.2-0.1 0.5v2.8q0 1.2 0 2.7 0 1.5 0 2.7v3.4q0 1.7 0.4 2.5 0.3 0.7 1.1 0.7 0.7 0 1.1-0.7 0.4-0.8 0.4-2.5v-11.6q0-0.3-0.1-0.5-0.1-0.1-0.2-0.2-0.1 0-0.3 0v-0.5h2.8v0.5q-0.2 0-0.3 0-0.1 0.1-0.2 0.2-0.1 0.2-0.1 0.5v12.2q0 0.7-0.3 1.3-0.3 0.6-0.7 1-0.5 0.4-1 0.6-0.6 0.2-1.1 0.2-0.6 0-1.1-0.2-0.6-0.2-1-0.6-0.5-0.4-0.7-1-0.3-0.5-0.3-1.3v-4q0-1.1 0-2.2 0-1.2 0-2.2v-3.8q0-0.4-0.1-0.5-0.1-0.2-0.2-0.2-0.1 0-0.3 0v-0.5c0 0 2.7 0 2.7 0z"></path>
    <path id="path845" class="s0" d="m65 16.6q1.5 2 2.2 3.6 0.7 1.7 0.4 3.3-0.1 0.6-0.3 1.1-0.2 0.5-0.6 0.8-0.3 0.4-0.8 0.7-0.5 0.2-1.3 0.2-0.4 0.1-0.8-0.1-0.4-0.2-0.7-0.4-0.3-0.1-0.4-0.1-0.2 0-0.2 0.5h-0.6v-4.1h0.6q-0.1 0.5 0 1 0 0.4 0.1 0.8 0.1 0.4 0.2 0.7 0.2 0.3 0.4 0.6 0.2 0.3 0.5 0.4 0.4 0.2 0.9 0.3 0.3 0 0.8-0.2 0.4-0.2 0.6-0.6 0.6-0.7 0.5-1.6-0.1-0.9-0.5-1.8-0.5-0.8-1.1-1.6-0.6-0.7-1-1.3-0.8-1-1.2-1.9-0.5-0.9-0.7-1.8-0.3-0.9-0.3-1.7 0-0.8 0.2-1.5 0.3-1.1 0.9-1.7 0.7-0.6 2-0.6 0.4 0 0.8 0.2 0.3 0.2 0.6 0.4 0.3 0.1 0.4 0.1 0.1 0 0.2-0.5h0.6v4h-0.6q0-1.1-0.2-1.8-0.1-0.7-0.5-1.3-0.5-0.5-1.3-0.5-0.4 0-0.8 0.1-0.4 0.2-0.7 0.5-0.5 0.8-0.5 1.6 0 0.8 0.4 1.5 0.3 0.8 0.9 1.5 0.5 0.6 0.9 1.2z"></path>
    <path id="path847" class="s0" d="m80.9 25.5v0.6h-2.8v-0.6q0.2 0.1 0.3 0 0.1 0 0.2-0.1 0.1-0.2 0.1-0.5v-6.7h-3.5v6.7q0 0.3 0.1 0.5 0.1 0.1 0.2 0.1 0.1 0.1 0.3 0v0.6h-2.7v-0.6q0.1 0.1 0.2 0 0.1 0 0.2-0.1 0.1-0.2 0.1-0.5v-13.9q0-0.3-0.1-0.5-0.1-0.1-0.2-0.2-0.1 0-0.2 0v-0.5h2.7v0.5q-0.2 0-0.3 0-0.1 0.1-0.2 0.2-0.1 0.2-0.1 0.5v6.7h3.5v-6.7q0-0.3-0.1-0.5-0.1-0.1-0.2-0.2-0.1 0-0.3 0v-0.5h2.8v0.5q-0.2 0-0.3 0-0.1 0.1-0.2 0.2-0.1 0.2-0.1 0.5v13.9q0 0.3 0.1 0.5 0.1 0.1 0.2 0.1 0.1 0.1 0.3 0z"></path>
    <path id="path849" class="s0" d="m118.8 14.9q0 0.8-0.2 1.4-0.2 0.5-0.5 0.9-0.3 0.4-0.6 0.6-0.4 0.2-0.7 0.2 0.3 0 0.6 0.1 0.4 0.2 0.7 0.6 0.3 0.4 0.5 1 0.2 0.5 0.2 1.4v1.9q0 0.6-0.3 1.2-0.2 0.5-0.6 1-0.3 0.4-0.8 0.7-0.4 0.2-0.8 0.2h-2.2q-0.8 0-1.9 0v-0.6q0.2 0.1 0.3 0 0.1 0 0.2-0.2 0.1-0.1 0.1-0.4v-13.9q0-0.3-0.1-0.4-0.1-0.2-0.2-0.2-0.1-0.1-0.3 0v-0.6h3.5q0.8 0 1.4 0.3 0.6 0.2 1 0.6 0.3 0.5 0.5 1 0.2 0.5 0.2 1.1c0 0 0 2.1 0 2.1zm-4.4-4.6v7.4h1.1q0.5 0 0.9-0.2 0.5-0.3 0.7-0.9 0.1-0.1 0.1-0.2 0-0.1 0-0.3 0 0 0.1-0.1 0-0.2 0-0.5 0-0.3 0-0.6v-2.6q0-0.6-0.1-1-0.2-0.4-0.5-0.6-0.2-0.2-0.5-0.2-0.3-0.1-0.6-0.2zm0 15.3h1q0.6 0 1.1-0.4 0.6-0.3 0.8-1.2 0-0.2 0.1-0.4 0-0.3 0-0.5v-2.1q0-0.4-0.1-0.8 0-0.1 0-0.1 0-0.2-0.1-0.3 0-0.1 0-0.2-0.3-0.7-0.7-1-0.5-0.3-1-0.3h-1.1z"></path>
    <path id="path851" class="s0" d="m130.4 23.7v2.4h-6.1v-0.6q0.1 0.1 0.2 0 0.2 0 0.3-0.1 0.1-0.2 0.1-0.5v-13.9q0-0.3-0.1-0.5-0.1-0.1-0.3-0.2-0.1 0-0.2 0v-0.5h2.7v0.5q-0.2 0-0.3 0-0.1 0.1-0.2 0.2-0.1 0.2-0.1 0.5v14.5h2.2q0.5 0 0.7-0.2 0.3-0.3 0.4-0.7 0.1-0.3 0.1-0.9c0 0 0.6 0 0.6 0z"></path>
    <path id="path853" class="s0" d="m142.5 18v2.6q0 1.1-0.1 1.9-0.1 0.8-0.2 1.4-0.2 0.5-0.4 1-0.5 0.6-1.2 1-0.7 0.3-1.5 0.3-0.7 0-1.4-0.3-0.7-0.4-1.2-1-0.3-0.5-0.4-1-0.2-0.6-0.2-1.4-0.1-0.8-0.1-1.9v-2.6q0-2 0-3.3 0.1-1.3 0.3-2.2 0-0.7 0.4-1.3 0.4-0.6 0.9-0.9 0.8-0.5 1.7-0.5 0.5 0 0.9 0.1 0.5 0.1 0.9 0.4 0.5 0.3 0.9 0.9 0.4 0.6 0.4 1.3 0.2 0.9 0.2 2.2 0.1 1.3 0.1 3.3zm-1.6 5.1v-2.3q0-1.4 0-2.8 0-1.4 0-2.8v-2.3q0-1.4-0.5-2-0.5-0.6-1.3-0.6-0.7 0-1.2 0.6-0.5 0.6-0.5 2v10.2q0 1.4 0.5 2 0.4 0.6 1.3 0.6 0.8 0 1.3-0.6 0.4-0.6 0.4-2z"></path>
    <path id="path855" class="s0" d="m157.5 9.8h2.3v0.5q-0.3 0-0.5 0-0.1 0.1-0.3 0.2-0.1 0.2-0.2 0.5 0 0-0.1 0.7-0.1 0.6-0.3 1.7-0.2 1.1-0.5 2.4-0.2 1.4-0.5 2.8-0.6 3.3-1.3 7.5h-1.2q-0.2-1.2-0.4-2.6-0.2-1.1-0.5-2.6-0.2-1.4-0.4-2.9-0.3 1.5-0.5 2.9-0.3 1.5-0.5 2.6-0.3 1.4-0.5 2.6h-1.2l-1.2-7.5q-0.2-1.4-0.4-2.8-0.2-1.3-0.4-2.4-0.1-1.1-0.2-1.7-0.1-0.7-0.1-0.7-0.1-0.3-0.3-0.5-0.1-0.1-0.3-0.2-0.2 0-0.4 0v-0.5h3.4v0.5q-0.2 0-0.4 0-0.1 0.1-0.2 0.2-0.1 0.2 0 0.5 0 0 0 0.6 0.1 0.6 0.3 1.6 0.1 0.9 0.3 2.1 0.2 1.3 0.4 2.5 0.2 1.3 0.4 2.5 0.2 1.2 0.4 2.3 0.2-1.4 0.5-3.1 0.3-1.7 0.6-3.3-0.2-1.1-0.3-2-0.2-1-0.3-1.7-0.1-0.7-0.2-1.2 0-0.4 0-0.4-0.1-0.3-0.2-0.5-0.2-0.1-0.3-0.2-0.3 0-0.5 0v-0.5h3.4v0.5q-0.2 0-0.4 0-0.1 0.1-0.2 0.2-0.1 0.2 0 0.5 0 0 0.1 0.6 0.1 0.6 0.2 1.6 0.2 0.9 0.4 2.1 0.1 1.3 0.3 2.5 0.2 1.3 0.4 2.6 0.2 1.2 0.4 2.3 0.2-1.1 0.4-2.3 0.3-1.3 0.5-2.6 0.2-1.2 0.4-2.5 0.2-1.2 0.4-2.1 0.1-1 0.3-1.6 0.1-0.6 0.1-0.6 0-0.3-0.1-0.5-0.1-0.1-0.2-0.2-0.1 0-0.3 0c0 0 0-0.5-0.1-0.5z"></path>
    <path id="path857" class="s0" d="m100.6 17.5v0.8h-3.8v3.8h-0.7v-3.8h-3.8v-0.8h3.8v-3.7h0.7v3.7z"></path>
    <path id="path859" class="s0" d="m57.1 38v1.4l-55.6-0.7z"></path>
    <path id="path861" class="s0" d="m67.9 41.8v1.2h-3.3v-0.3q0.1 0.1 0.2 0 0 0 0.1-0.1 0.1-0.1 0.1-0.2v-7.4q0-0.2-0.1-0.3-0.1 0-0.1-0.1-0.1 0-0.2 0v-0.2h1.5v0.2q-0.1 0-0.2 0 0 0.1-0.1 0.1 0 0.1 0 0.3v7.7h1.1q0.3 0 0.4-0.1 0.2-0.2 0.2-0.4 0.1-0.2 0.1-0.4z"></path>
    <path id="path863" class="s0" d="m78.1 38.7q0 0.8 0 1.4 0 0.6-0.1 1 0 0.4-0.1 0.7-0.1 0.3-0.2 0.6-0.3 0.3-0.6 0.5-0.4 0.2-0.8 0.2-0.4 0-0.8-0.2-0.3-0.2-0.6-0.5-0.1-0.3-0.2-0.6-0.1-0.3-0.1-0.7-0.1-0.4-0.1-1 0-0.6 0-1.4 0-1 0-1.7 0.1-0.7 0.2-1.2 0-0.4 0.2-0.7 0.2-0.3 0.5-0.5 0.4-0.3 0.9-0.3 0.2 0 0.5 0.1 0.2 0.1 0.4 0.2 0.3 0.2 0.5 0.5 0.2 0.3 0.2 0.7 0.1 0.5 0.1 1.2 0.1 0.7 0.1 1.7zm-0.9 2.7q0-0.5 0-1.2 0-0.7 0-1.5 0-0.7 0-1.5 0-0.7 0-1.2 0-0.7-0.2-1-0.3-0.4-0.7-0.3-0.4-0.1-0.7 0.3-0.2 0.3-0.2 1v5.4q0 0.8 0.2 1.1 0.2 0.3 0.7 0.3 0.5 0 0.7-0.3 0.2-0.3 0.2-1.1z"></path>
    <path id="path865" class="s0" d="m87.7 34.4h1.1v0.3q-0.1-0.1-0.2 0 0 0-0.1 0.1 0 0 0 0.2v8h-1.1l-2-6.9v6.3q0 0.1 0.1 0.2 0 0.1 0.1 0.1 0.1 0 0.2 0v0.3h-1.1v-0.3q0.1 0 0.2 0 0 0 0.1-0.1 0.1-0.1 0.1-0.2v-7.4q0-0.2-0.1-0.2-0.1-0.1-0.1-0.1-0.1-0.1-0.2 0z"></path>
    <path id="path867" class="s0" d="m99.4 36.1v5.2q0 0.3-0.1 0.6-0.1 0.3-0.4 0.6-0.2 0.2-0.5 0.4-0.4 0.1-0.9 0.1 0 0-0.1 0 0 0-0.2 0-0.1 0-0.3 0-0.1 0-0.3 0h-0.9v-0.3q0.1 0.1 0.1 0 0.1 0 0.2-0.1 0 0 0-0.2v-7.4q0-0.1 0-0.2-0.1-0.1-0.2-0.1 0 0-0.1 0v-0.3h1.8q0.5 0 0.9 0.1 0.3 0.2 0.5 0.4 0.3 0.3 0.4 0.6 0.1 0.3 0.1 0.6zm-2.6-1.4v8h0.8q0.2 0 0.4-0.1 0.2-0.1 0.4-0.3 0.2-0.3 0.2-0.8v-5.6q0-0.3-0.1-0.5-0.1-0.2-0.2-0.4-0.2-0.1-0.3-0.2-0.2-0.1-0.4-0.1-0.2 0-0.4 0z"></path>
    <path id="path869" class="s0" d="m109.7 38.7q0 0.8 0 1.4 0 0.6 0 1 0 0.4-0.1 0.7-0.1 0.3-0.3 0.6-0.2 0.3-0.6 0.5-0.4 0.2-0.7 0.2-0.4 0-0.8-0.2-0.4-0.2-0.6-0.5-0.2-0.3-0.3-0.6 0-0.3-0.1-0.7 0-0.4 0-1 0-0.6 0-1.4 0-1 0-1.7 0-0.7 0.1-1.2 0.1-0.4 0.3-0.7 0.2-0.3 0.4-0.5 0.5-0.3 1-0.3 0.2 0 0.4 0.1 0.3 0.1 0.5 0.2 0.3 0.2 0.5 0.5 0.2 0.3 0.2 0.7 0.1 0.5 0.1 1.2 0 0.7 0 1.7zm-0.8 2.7q0-0.5 0-1.2 0-0.7 0-1.5 0-0.7 0-1.5 0-0.7 0-1.2 0-0.7-0.3-1-0.3-0.4-0.6-0.3-0.4-0.1-0.7 0.3-0.3 0.3-0.3 1v5.4q0 0.8 0.3 1.1 0.2 0.3 0.7 0.3 0.4 0 0.7-0.3 0.2-0.3 0.2-1.1z"></path>
    <path id="path871" class="s0" d="m119.4 34.4h1.1v0.3q-0.1-0.1-0.2 0-0.1 0-0.1 0.1-0.1 0-0.1 0.2v8h-1l-2-6.9v6.3q0 0.1 0 0.2 0.1 0.1 0.2 0.1 0 0 0.1 0v0.3h-1v-0.3q0.1 0 0.1 0 0.1 0 0.2-0.1 0-0.1 0-0.2v-7.4q0-0.2 0-0.2-0.1-0.1-0.2-0.1 0-0.1-0.1 0v-0.3h1.2l2.2 7.3v-6.7q0-0.2-0.1-0.2-0.1-0.1-0.1-0.1-0.1-0.1-0.2 0z"></path>
    <path id="path873" class="s0" d="m128 38v1.4l55.6-0.7z"></path>
  </g>
</svg>
